<svg id="svg-sprite">
<defs>

<symbol id="back_icon">
  <path d="M0 0h24v24H0z" class="bounds" fill="none"/>
  <path d="M20 11H7.83l5.59-5.59L12 4l-8 8 8 8 1.41-1.41L7.83 13H20v-2z" class="icon" fill="#fff"/>
</symbol>

<symbol id="close_icon">
  <path d="M19 6.41L17.59 5 12 10.59 6.41 5 5 6.41 10.59 12 5 17.59 6.41 19 12 13.41 17.59 19 19 17.59 13.41 12z" class="icon" fill="#fff"/>
  <path d="M0 0h24v24H0z" class="bounds" fill="none"/>
</symbol>

<symbol id="menu_icon">
  <path d="M3 18h18v-2H3v2zm0-5h18v-2H3v2zm0-7v2h18V6H3z" class="icon" fill="#fff"/>
  <path d="M0 0h24v24H0z" class="bounds" fill="none"/>
</symbol>

<symbol id="play_icon">
  <path d="M8 5v14l11-7z" class="icon" fill="#fff"/>
  <path d="M0 0h24v24H0z" class="bounds" fill="none"/>
</symbol>

<symbol id="pause_icon">
  <path d="M6 19h4V5H6v14zm8-14v14h4V5h-4z" class="icon" fill="#fff"/>
  <path d="M0 0h24v24H0z" class="bounds" fill="none"/>
</symbol>

<symbol id="stop_icon">
  <path d="M6 6h12v12H6z" class="icon" fill="#fff"/>
  <path d="M0 0h24v24H0z" class="bounds" fill="none"/>
</symbol>

<symbol id="settings_icon">
  <path d="M19.43 12.98c.04-.32.07-.64.07-.98s-.03-.66-.07-.98l2.11-1.65c.19-.15.24-.42.12-.64l-2-3.46c-.12-.22-.39-.3-.61-.22l-2.49 1c-.52-.4-1.08-.73-1.69-.98l-.38-2.65C14.46 2.18 14.25 2 14 2h-4c-.25 0-.46.18-.49.42l-.38 2.65c-.61.25-1.17.59-1.69.98l-2.49-1c-.23-.09-.49 0-.61.22l-2 3.46c-.13.22-.07.49.12.64l2.11 1.65c-.04.32-.07.65-.07.98s.03.66.07.98l-2.11 1.65c-.19.15-.24.42-.12.64l2 3.46c.12.22.39.3.61.22l2.49-1c.52.4 1.08.73 1.69.98l.38 2.65c.03.24.24.42.49.42h4c.25 0 .46-.18.49-.42l.38-2.65c.61-.25 1.17-.59 1.69-.98l2.49 1c.23.09.49 0 .61-.22l2-3.46c.12-.22.07-.49-.12-.64l-2.11-1.65zM12 15.5c-1.93 0-3.5-1.57-3.5-3.5s1.57-3.5 3.5-3.5 3.5 1.57 3.5 3.5-1.57 3.5-3.5 3.5z" class="icon" fill="#fff"/>
  <path d="M0 0h24v24H0z" class="bounds" fill="none"/>
</symbol>

<symbol id="timer_icon">
  <path d="M15 1H9v2h6V1zm-4 13h2V8h-2v6zm8.03-6.61l1.42-1.42c-.43-.51-.9-.99-1.41-1.41l-1.42 1.42C16.07 4.74 14.12 4 12 4c-4.97 0-9 4.03-9 9s4.02 9 9 9 9-4.03 9-9c0-2.12-.74-4.07-1.97-5.61zM12 20c-3.87 0-7-3.13-7-7s3.13-7 7-7 7 3.13 7 7-3.13 7-7 7z" class="icon" fill="#fff"/>
  <path d="M0 0h24v24H0z" class="bounds" fill="none"/>
</symbol>

<symbol id="timer_off_icon">
  <path d="M19.04 4.55l-1.42 1.42C16.07 4.74 14.12 4 12 4c-1.83 0-3.53.55-4.95 1.48l1.46 1.46C9.53 6.35 10.73 6 12 6c3.87 0 7 3.13 7 7 0 1.27-.35 2.47-.94 3.49l1.45 1.45C20.45 16.53 21 14.83 21 13c0-2.12-.74-4.07-1.97-5.61l1.42-1.42-1.41-1.42zM15 1H9v2h6V1zm-4 8.44l2 2V8h-2v1.44zM3.02 4L1.75 5.27 4.5 8.03C3.55 9.45 3 11.16 3 13c0 4.97 4.02 9 9 9 1.84 0 3.55-.55 4.98-1.5l2.5 2.5 1.27-1.27-7.71-7.71L3.02 4zM12 20c-3.87 0-7-3.13-7-7 0-1.28.35-2.48.95-3.52l9.56 9.56c-1.03.61-2.23.96-3.51.96z" class="icon" fill="#fff"/>
  <path d="M0 0h24v24H0z" class="bounds" fill="none"/>
</symbol>

<symbol id="sound_off_icon">
  <path d="M16.5 12c0-1.77-1.02-3.29-2.5-4.03v2.21l2.45 2.45c.03-.2.05-.41.05-.63zm2.5 0c0 .94-.2 1.82-.54 2.64l1.51 1.51C20.63 14.91 21 13.5 21 12c0-4.28-2.99-7.86-7-8.77v2.06c2.89.86 5 3.54 5 6.71zM4.27 3L3 4.27 7.73 9H3v6h4l5 5v-6.73l4.25 4.25c-.67.52-1.42.93-2.25 1.18v2.06c1.38-.31 2.63-.95 3.69-1.81L19.73 21 21 19.73l-9-9L4.27 3zM12 4L9.91 6.09 12 8.18V4z" class="icon" fill="#fff"/>
  <path d="M0 0h24v24H0z" class="bounds" fill="none"/>
</symbol>

<symbol id="sound_on_icon">
  <path d="M3 9v6h4l5 5V4L7 9H3zm13.5 3c0-1.77-1.02-3.29-2.5-4.03v8.05c1.48-.73 2.5-2.25 2.5-4.02zM14 3.23v2.06c2.89.86 5 3.54 5 6.71s-2.11 5.85-5 6.71v2.06c4.01-.91 7-4.49 7-8.77s-2.99-7.86-7-8.77z" class="icon" fill="#fff"/>
  <path d="M0 0h24v24H0z" class="bounds" fill="none"/>
</symbol>

<symbol id="minus_icon">
  <path d="M19 13H5v-2h14v2z" class="icon" fill="#fff"/>
  <path d="M0 0h24v24H0z" class="bounds" fill="none"/>
</symbol>

<symbol id="plus_icon">
  <path d="M19 13h-6v6h-2v-6H5v-2h6V5h2v6h6v2z" class="icon" fill="#fff"/>
  <path d="M0 0h24v24H0z" class="bounds" fill="none"/>
</symbol>

<symbol id="chevron-right_icon">
  <path d="M10 6L8.59 7.41 13.17 12l-4.58 4.59L10 18l6-6z" fill="#000"/>
  <path d="M0 0h24v24H0z" fill="none"/>
</symbol>

<symbol id="language_icon">
  <path d="M11.99 2C6.47 2 2 6.48 2 12s4.47 10 9.99 10C17.52 22 22 17.52 22 12S17.52 2 11.99 2zm6.93 6h-2.95c-.32-1.25-.78-2.45-1.38-3.56 1.84.63 3.37 1.91 4.33 3.56zM12 4.04c.83 1.2 1.48 2.53 1.91 3.96h-3.82c.43-1.43 1.08-2.76 1.91-3.96zM4.26 14C4.1 13.36 4 12.69 4 12s.1-1.36.26-2h3.38c-.08.66-.14 1.32-.14 2 0 .68.06 1.34.14 2H4.26zm.82 2h2.95c.32 1.25.78 2.45 1.38 3.56-1.84-.63-3.37-1.9-4.33-3.56zm2.95-8H5.08c.96-1.66 2.49-2.93 4.33-3.56C8.81 5.55 8.35 6.75 8.03 8zM12 19.96c-.83-1.2-1.48-2.53-1.91-3.96h3.82c-.43 1.43-1.08 2.76-1.91 3.96zM14.34 14H9.66c-.09-.66-.16-1.32-.16-2 0-.68.07-1.35.16-2h4.68c.09.65.16 1.32.16 2 0 .68-.07 1.34-.16 2zm.25 5.56c.6-1.11 1.06-2.31 1.38-3.56h2.95c-.96 1.65-2.49 2.93-4.33 3.56zM16.36 14c.08-.66.14-1.32.14-2 0-.68-.06-1.34-.14-2h3.38c.16.64.26 1.31.26 2s-.1 1.36-.26 2h-3.38z" fill="#fff"/>
  <path d="M0 0h24v24H0z" fill="none"/>
</svg>

</defs>
</svg>